<?xml version="1.0" encoding="UTF-8" standalone="no"?>
<!DOCTYPE svg PUBLIC "-//W3C//DTD SVG 1.1//EN"
 "http://www.w3.org/Graphics/SVG/1.1/DTD/svg11.dtd">
<!-- Generated by graphviz version 2.43.0 (0)
 -->
<!-- Title: %3 Pages: 1 -->
<svg width="1163pt" height="560pt"
 viewBox="0.00 0.00 1163.00 560.00" xmlns="http://www.w3.org/2000/svg" xmlns:xlink="http://www.w3.org/1999/xlink">
<g id="graph0" class="graph" transform="scale(1 1) rotate(0) translate(4 556)">
<title>%3</title>
<polygon fill="white" stroke="transparent" points="-4,4 -4,-556 1159,-556 1159,4 -4,4"/>
<!-- fake -->
<g id="node1" class="node">
<title>fake</title>
</g>
<!-- 0 -->
<g id="node2" class="node">
<title>0</title>
<ellipse fill="none" stroke="black" cx="503" cy="-461" rx="27" ry="18"/>
<text text-anchor="middle" x="503" y="-457.3" font-family="Times,serif" font-size="14.00">0</text>
</g>
<!-- fake&#45;&gt;0 -->
<g id="edge1" class="edge">
<title>fake&#45;&gt;0</title>
<path fill="none" stroke="black" stroke-width="2" d="M503,-515.81C503,-507.79 503,-498.05 503,-489.07"/>
<polygon fill="black" stroke="black" stroke-width="2" points="506.5,-489.03 503,-479.03 499.5,-489.03 506.5,-489.03"/>
</g>
<!-- 0&#45;&gt;0 -->
<g id="edge14" class="edge">
<title>0&#45;&gt;0</title>
<path fill="none" stroke="black" d="M528.44,-467.69C539.03,-468.15 548,-465.92 548,-461 548,-457.77 544.14,-455.7 538.49,-454.79"/>
<polygon fill="black" stroke="black" points="538.6,-451.29 528.44,-454.31 538.27,-458.28 538.6,-451.29"/>
<text text-anchor="middle" x="621" y="-457.3" font-family="Times,serif" font-size="14.00">(a &amp; ~c) | (~a &amp; ~c)</text>
</g>
<!-- 1 -->
<g id="node3" class="node">
<title>1</title>
<ellipse fill="none" stroke="black" cx="808" cy="-374" rx="27" ry="18"/>
<text text-anchor="middle" x="808" y="-370.3" font-family="Times,serif" font-size="14.00">1</text>
</g>
<!-- 0&#45;&gt;1 -->
<g id="edge7" class="edge">
<title>0&#45;&gt;1</title>
<path fill="none" stroke="black" d="M528.46,-454.7C575.96,-444.53 681.04,-420.73 767,-392 770.14,-390.95 773.39,-389.77 776.61,-388.54"/>
<polygon fill="black" stroke="black" points="778.1,-391.71 786.09,-384.75 775.5,-385.21 778.1,-391.71"/>
<text text-anchor="middle" x="805" y="-413.8" font-family="Times,serif" font-size="14.00">(a &amp; c &amp; ~e) | (c &amp; ~a &amp; ~e)</text>
</g>
<!-- 2 -->
<g id="node4" class="node">
<title>2</title>
<ellipse fill="none" stroke="black" cx="593" cy="-287" rx="27" ry="18"/>
<text text-anchor="middle" x="593" y="-283.3" font-family="Times,serif" font-size="14.00">2</text>
</g>
<!-- 0&#45;&gt;2 -->
<g id="edge15" class="edge">
<title>0&#45;&gt;2</title>
<path fill="none" stroke="black" d="M500.66,-443.06C498.51,-421.53 497.54,-383.82 512,-356 523.5,-333.88 545.59,-316.09 563.8,-304.27"/>
<polygon fill="black" stroke="black" points="565.71,-307.2 572.36,-298.95 562.02,-301.25 565.71,-307.2"/>
<text text-anchor="middle" x="642" y="-370.3" font-family="Times,serif" font-size="14.00">(a &amp; c &amp; e &amp; ~f) | (c &amp; e &amp; ~a &amp; ~f)</text>
</g>
<!-- 3 -->
<g id="node5" class="node">
<title>3</title>
<ellipse fill="none" stroke="black" cx="361" cy="-200" rx="27" ry="18"/>
<text text-anchor="middle" x="361" y="-196.3" font-family="Times,serif" font-size="14.00">3</text>
</g>
<!-- 0&#45;&gt;3 -->
<g id="edge9" class="edge">
<title>0&#45;&gt;3</title>
<path fill="none" stroke="black" d="M476.18,-458.7C414.39,-454.1 262.43,-433.16 198,-338 158.43,-279.55 268.58,-232.07 327.11,-211.72"/>
<polygon fill="black" stroke="black" points="328.37,-214.99 336.71,-208.46 326.12,-208.36 328.37,-214.99"/>
<text text-anchor="middle" x="359" y="-326.8" font-family="Times,serif" font-size="14.00">(a &amp; c &amp; e &amp; f &amp; ~g) | (c &amp; e &amp; f &amp; ~a &amp; ~g)</text>
</g>
<!-- 4 -->
<g id="node6" class="node">
<title>4</title>
<ellipse fill="none" stroke="black" cx="591" cy="-113" rx="27" ry="18"/>
<text text-anchor="middle" x="591" y="-109.3" font-family="Times,serif" font-size="14.00">4</text>
</g>
<!-- 0&#45;&gt;4 -->
<g id="edge8" class="edge">
<title>0&#45;&gt;4</title>
<path fill="none" stroke="black" d="M475.96,-458.32C371.48,-451.47 0,-423.71 0,-375 0,-375 0,-375 0,-199 0,-73.86 439.63,-168.54 559,-131 560.05,-130.67 561.11,-130.31 562.16,-129.91"/>
<polygon fill="black" stroke="black" points="563.78,-133.02 571.52,-125.79 560.96,-126.62 563.78,-133.02"/>
<text text-anchor="middle" x="69" y="-283.3" font-family="Times,serif" font-size="14.00">c &amp; e &amp; f &amp; g &amp; ~a</text>
</g>
<!-- 5 -->
<g id="node7" class="node">
<title>5</title>
<ellipse fill="none" stroke="black" cx="698" cy="-22" rx="18" ry="18"/>
<ellipse fill="none" stroke="black" cx="698" cy="-22" rx="22" ry="22"/>
<text text-anchor="middle" x="698" y="-18.3" font-family="Times,serif" font-size="14.00">5</text>
</g>
<!-- 0&#45;&gt;5 -->
<g id="edge4" class="edge">
<title>0&#45;&gt;5</title>
<path fill="none" stroke="black" d="M530.12,-459.91C596.17,-459.21 770.36,-454.46 912,-425 967.36,-413.48 1029,-431.55 1029,-375 1029,-375 1029,-375 1029,-112 1029,-50.5 813.23,-30.29 730.11,-24.79"/>
<polygon fill="black" stroke="black" points="730.18,-21.29 719.97,-24.15 729.73,-28.27 730.18,-21.29"/>
<text text-anchor="middle" x="1092" y="-239.8" font-family="Times,serif" font-size="14.00">a &amp; c &amp; e &amp; f &amp; g</text>
</g>
<!-- 1&#45;&gt;1 -->
<g id="edge6" class="edge">
<title>1&#45;&gt;1</title>
<path fill="none" stroke="black" d="M832.53,-381.75C843.51,-382.49 853,-379.91 853,-374 853,-370.03 848.72,-367.56 842.57,-366.59"/>
<polygon fill="black" stroke="black" points="842.65,-363.09 832.53,-366.25 842.41,-370.09 842.65,-363.09"/>
<text text-anchor="middle" x="927" y="-370.3" font-family="Times,serif" font-size="14.00">(a &amp; ~e) | (~a &amp; ~e)</text>
</g>
<!-- 1&#45;&gt;2 -->
<g id="edge2" class="edge">
<title>1&#45;&gt;2</title>
<path fill="none" stroke="black" d="M786.7,-362.79C780.47,-360.19 773.57,-357.66 767,-356 729.1,-346.41 618.19,-367.02 592,-338 586.44,-331.84 585.17,-323.3 585.77,-315.03"/>
<polygon fill="black" stroke="black" points="589.26,-315.3 587.33,-304.88 582.35,-314.23 589.26,-315.3"/>
<text text-anchor="middle" x="693" y="-326.8" font-family="Times,serif" font-size="14.00">(a &amp; e &amp; ~f) | (e &amp; ~a &amp; ~f)</text>
</g>
<!-- 1&#45;&gt;3 -->
<g id="edge17" class="edge">
<title>1&#45;&gt;3</title>
<path fill="none" stroke="black" d="M788.55,-361.11C784.52,-359.1 780.22,-357.26 776,-356 692.6,-331.1 667.31,-349.24 581,-338 541.22,-332.82 531.78,-328.15 492,-323 470.09,-320.16 308.9,-321.31 294,-305 269.59,-278.27 306.37,-241.65 334.35,-219.75"/>
<polygon fill="black" stroke="black" points="336.8,-222.28 342.67,-213.46 332.58,-216.7 336.8,-222.28"/>
<text text-anchor="middle" x="425.5" y="-283.3" font-family="Times,serif" font-size="14.00">(a &amp; e &amp; f &amp; ~g) | (e &amp; f &amp; ~a &amp; ~g)</text>
</g>
<!-- 1&#45;&gt;4 -->
<g id="edge13" class="edge">
<title>1&#45;&gt;4</title>
<path fill="none" stroke="black" d="M806.12,-355.77C803.56,-334.89 798.2,-298.81 789,-269 786.42,-260.64 783.44,-259.41 781,-251 768.24,-206.99 797.56,-182.22 766,-149 747.49,-129.51 673.7,-120.36 628.05,-116.49"/>
<polygon fill="black" stroke="black" points="628.19,-112.99 617.94,-115.68 627.63,-119.97 628.19,-112.99"/>
<text text-anchor="middle" x="835.5" y="-239.8" font-family="Times,serif" font-size="14.00">e &amp; f &amp; g &amp; ~a</text>
</g>
<!-- 1&#45;&gt;5 -->
<g id="edge19" class="edge">
<title>1&#45;&gt;5</title>
<path fill="none" stroke="black" d="M831.24,-364.35C859.65,-352.08 904,-326.73 904,-288 904,-288 904,-288 904,-112 904,-37.18 788.07,-24.53 730.15,-22.88"/>
<polygon fill="black" stroke="black" points="730.11,-19.38 720.05,-22.69 729.98,-26.38 730.11,-19.38"/>
<text text-anchor="middle" x="952.5" y="-196.3" font-family="Times,serif" font-size="14.00">a &amp; e &amp; f &amp; g</text>
</g>
<!-- 2&#45;&gt;2 -->
<g id="edge22" class="edge">
<title>2&#45;&gt;2</title>
<path fill="none" stroke="black" d="M617.53,-294.75C628.51,-295.49 638,-292.91 638,-287 638,-283.03 633.72,-280.56 627.57,-279.59"/>
<polygon fill="black" stroke="black" points="627.65,-276.09 617.53,-279.25 627.41,-283.09 627.65,-276.09"/>
<text text-anchor="middle" x="709" y="-283.3" font-family="Times,serif" font-size="14.00">(a &amp; ~f) | (~a &amp; ~f)</text>
</g>
<!-- 2&#45;&gt;3 -->
<g id="edge5" class="edge">
<title>2&#45;&gt;3</title>
<path fill="none" stroke="black" d="M571.7,-275.79C565.47,-273.18 558.58,-270.66 552,-269 513.45,-259.28 404.19,-276.87 374,-251 367.42,-245.36 363.95,-236.84 362.19,-228.43"/>
<polygon fill="black" stroke="black" points="365.64,-227.84 360.79,-218.43 358.71,-228.82 365.64,-227.84"/>
<text text-anchor="middle" x="475.5" y="-239.8" font-family="Times,serif" font-size="14.00">(a &amp; f &amp; ~g) | (f &amp; ~a &amp; ~g)</text>
</g>
<!-- 2&#45;&gt;4 -->
<g id="edge20" class="edge">
<title>2&#45;&gt;4</title>
<path fill="none" stroke="black" d="M592.8,-268.88C592.45,-239 591.73,-177.11 591.32,-141.27"/>
<polygon fill="black" stroke="black" points="594.81,-141.01 591.2,-131.05 587.81,-141.09 594.81,-141.01"/>
<text text-anchor="middle" x="631.5" y="-196.3" font-family="Times,serif" font-size="14.00">f &amp; g &amp; ~a</text>
</g>
<!-- 2&#45;&gt;5 -->
<g id="edge11" class="edge">
<title>2&#45;&gt;5</title>
<path fill="none" stroke="black" d="M613.71,-275.02C633.08,-263.56 661.04,-243.67 675,-218 703.32,-165.9 703.77,-94.57 701.15,-54.2"/>
<polygon fill="black" stroke="black" points="704.64,-53.86 700.4,-44.15 697.66,-54.38 704.64,-53.86"/>
<text text-anchor="middle" x="730.5" y="-152.8" font-family="Times,serif" font-size="14.00">a &amp; f &amp; g</text>
</g>
<!-- 3&#45;&gt;3 -->
<g id="edge10" class="edge">
<title>3&#45;&gt;3</title>
<path fill="none" stroke="black" d="M385.53,-207.75C396.51,-208.49 406,-205.91 406,-200 406,-196.03 401.72,-193.56 395.57,-192.59"/>
<polygon fill="black" stroke="black" points="395.65,-189.09 385.53,-192.25 395.41,-196.09 395.65,-189.09"/>
<text text-anchor="middle" x="480.5" y="-196.3" font-family="Times,serif" font-size="14.00">(a &amp; ~g) | (~a &amp; ~g)</text>
</g>
<!-- 3&#45;&gt;4 -->
<g id="edge21" class="edge">
<title>3&#45;&gt;4</title>
<path fill="none" stroke="black" d="M384.32,-190.38C425.58,-175.13 511.53,-143.37 558.55,-125.99"/>
<polygon fill="black" stroke="black" points="559.79,-129.26 567.96,-122.51 557.37,-122.7 559.79,-129.26"/>
<text text-anchor="middle" x="515" y="-152.8" font-family="Times,serif" font-size="14.00">g &amp; ~a</text>
</g>
<!-- 3&#45;&gt;5 -->
<g id="edge16" class="edge">
<title>3&#45;&gt;5</title>
<path fill="none" stroke="black" d="M377.78,-185.85C405.28,-164.73 462.18,-122.79 515,-95 566.37,-67.97 630.22,-45.09 667.32,-32.76"/>
<polygon fill="black" stroke="black" points="668.63,-36.02 677.04,-29.57 666.45,-29.37 668.63,-36.02"/>
<text text-anchor="middle" x="535" y="-109.3" font-family="Times,serif" font-size="14.00">a &amp; g</text>
</g>
<!-- 4&#45;&gt;4 -->
<g id="edge18" class="edge">
<title>4&#45;&gt;4</title>
<path fill="none" stroke="black" d="M615.53,-120.75C626.51,-121.49 636,-118.91 636,-113 636,-109.03 631.72,-106.56 625.57,-105.59"/>
<polygon fill="black" stroke="black" points="625.65,-102.09 615.53,-105.25 625.41,-109.09 625.65,-102.09"/>
<text text-anchor="middle" x="646.5" y="-109.3" font-family="Times,serif" font-size="14.00">~a</text>
</g>
<!-- 4&#45;&gt;5 -->
<g id="edge3" class="edge">
<title>4&#45;&gt;5</title>
<path fill="none" stroke="black" d="M607.25,-98.48C624.82,-83.87 653.04,-60.4 673.35,-43.5"/>
<polygon fill="black" stroke="black" points="675.79,-46.02 681.24,-36.94 671.32,-40.64 675.79,-46.02"/>
<text text-anchor="middle" x="654.5" y="-65.8" font-family="Times,serif" font-size="14.00">a</text>
</g>
<!-- 5&#45;&gt;5 -->
<g id="edge12" class="edge">
<title>5&#45;&gt;5</title>
<path fill="none" stroke="black" d="M718.58,-30.37C728.84,-31.53 738,-28.74 738,-22 738,-17.68 734.24,-14.99 728.84,-13.91"/>
<polygon fill="black" stroke="black" points="728.67,-10.41 718.58,-13.63 728.48,-17.4 728.67,-10.41"/>
<text text-anchor="middle" x="755" y="-18.3" font-family="Times,serif" font-size="14.00">True</text>
</g>
</g>
</svg>
